<mxfile host="app.diagrams.net" modified="2023-09-28T21:14:36.965Z" agent="Mozilla/5.0 (X11; Linux x86_64) AppleWebKit/537.36 (KHTML, like Gecko) Chrome/114.0.0.0 Safari/537.36" etag="YMI6sxIHokyBJcsvcoSL" version="22.0.0" type="github">
  <diagram name="Page-1" id="v68bjZuM31bieONhX8QO">
    <mxGraphModel dx="1434" dy="807" grid="1" gridSize="10" guides="1" tooltips="1" connect="1" arrows="1" fold="1" page="1" pageScale="1" pageWidth="827" pageHeight="1169" math="0" shadow="0">
      <root>
        <mxCell id="0" />
        <mxCell id="1" parent="0" />
        <mxCell id="hSVm4hoZ0ws5-N1yhAHV-4" value="App" style="rounded=0;whiteSpace=wrap;html=1;" vertex="1" parent="1">
          <mxGeometry x="470" y="120" width="120" height="60" as="geometry" />
        </mxCell>
        <mxCell id="hSVm4hoZ0ws5-N1yhAHV-5" value="Sidebar" style="rounded=0;whiteSpace=wrap;html=1;" vertex="1" parent="1">
          <mxGeometry x="30" y="220" width="120" height="60" as="geometry" />
        </mxCell>
        <mxCell id="hSVm4hoZ0ws5-N1yhAHV-6" value="AccordianPage" style="rounded=0;whiteSpace=wrap;html=1;" vertex="1" parent="1">
          <mxGeometry x="180" y="220" width="120" height="60" as="geometry" />
        </mxCell>
        <mxCell id="hSVm4hoZ0ws5-N1yhAHV-7" value="ButtonPage" style="rounded=0;whiteSpace=wrap;html=1;" vertex="1" parent="1">
          <mxGeometry x="330" y="220" width="120" height="60" as="geometry" />
        </mxCell>
        <mxCell id="hSVm4hoZ0ws5-N1yhAHV-8" value="DropdownPage" style="rounded=0;whiteSpace=wrap;html=1;" vertex="1" parent="1">
          <mxGeometry x="470" y="220" width="120" height="60" as="geometry" />
        </mxCell>
        <mxCell id="hSVm4hoZ0ws5-N1yhAHV-9" value="CounterPage" style="rounded=0;whiteSpace=wrap;html=1;" vertex="1" parent="1">
          <mxGeometry x="620" y="220" width="120" height="60" as="geometry" />
        </mxCell>
        <mxCell id="hSVm4hoZ0ws5-N1yhAHV-10" value="ModalPage" style="rounded=0;whiteSpace=wrap;html=1;" vertex="1" parent="1">
          <mxGeometry x="770" y="220" width="120" height="60" as="geometry" />
        </mxCell>
        <mxCell id="hSVm4hoZ0ws5-N1yhAHV-11" value="TablePage" style="rounded=0;whiteSpace=wrap;html=1;" vertex="1" parent="1">
          <mxGeometry x="910" y="220" width="120" height="60" as="geometry" />
        </mxCell>
        <mxCell id="hSVm4hoZ0ws5-N1yhAHV-12" value="Accordian&lt;br&gt;" style="rounded=0;whiteSpace=wrap;html=1;" vertex="1" parent="1">
          <mxGeometry x="180" y="360" width="120" height="60" as="geometry" />
        </mxCell>
        <mxCell id="hSVm4hoZ0ws5-N1yhAHV-13" value="Button" style="rounded=0;whiteSpace=wrap;html=1;" vertex="1" parent="1">
          <mxGeometry x="330" y="360" width="120" height="60" as="geometry" />
        </mxCell>
        <mxCell id="hSVm4hoZ0ws5-N1yhAHV-14" value="Dropdown" style="rounded=0;whiteSpace=wrap;html=1;" vertex="1" parent="1">
          <mxGeometry x="470" y="360" width="120" height="60" as="geometry" />
        </mxCell>
        <mxCell id="hSVm4hoZ0ws5-N1yhAHV-16" value="Modal" style="rounded=0;whiteSpace=wrap;html=1;" vertex="1" parent="1">
          <mxGeometry x="770" y="360" width="120" height="60" as="geometry" />
        </mxCell>
        <mxCell id="hSVm4hoZ0ws5-N1yhAHV-17" value="Table" style="rounded=0;whiteSpace=wrap;html=1;" vertex="1" parent="1">
          <mxGeometry x="910" y="500" width="120" height="60" as="geometry" />
        </mxCell>
        <mxCell id="hSVm4hoZ0ws5-N1yhAHV-18" value="SortableTable" style="rounded=0;whiteSpace=wrap;html=1;" vertex="1" parent="1">
          <mxGeometry x="910" y="360" width="120" height="60" as="geometry" />
        </mxCell>
        <mxCell id="hSVm4hoZ0ws5-N1yhAHV-19" value="Panel" style="rounded=0;whiteSpace=wrap;html=1;" vertex="1" parent="1">
          <mxGeometry x="70" y="560" width="120" height="60" as="geometry" />
        </mxCell>
        <mxCell id="hSVm4hoZ0ws5-N1yhAHV-21" value="" style="endArrow=classic;html=1;rounded=0;exitX=-0.025;exitY=0.367;exitDx=0;exitDy=0;entryX=0.567;entryY=-0.083;entryDx=0;entryDy=0;entryPerimeter=0;exitPerimeter=0;" edge="1" parent="1" source="hSVm4hoZ0ws5-N1yhAHV-4">
          <mxGeometry width="50" height="50" relative="1" as="geometry">
            <mxPoint x="461.96" y="139.98000000000002" as="sourcePoint" />
            <mxPoint x="89.99999999999997" y="220" as="targetPoint" />
            <Array as="points">
              <mxPoint x="251.95999999999998" y="139.98000000000002" />
              <mxPoint x="91.96000000000001" y="139.98000000000002" />
            </Array>
          </mxGeometry>
        </mxCell>
        <mxCell id="hSVm4hoZ0ws5-N1yhAHV-22" value="" style="endArrow=classic;html=1;rounded=0;entryX=0.5;entryY=0;entryDx=0;entryDy=0;" edge="1" parent="1">
          <mxGeometry width="50" height="50" relative="1" as="geometry">
            <mxPoint x="239.5" y="140" as="sourcePoint" />
            <mxPoint x="239.5" y="220" as="targetPoint" />
          </mxGeometry>
        </mxCell>
        <mxCell id="hSVm4hoZ0ws5-N1yhAHV-23" value="" style="endArrow=classic;html=1;rounded=0;entryX=0.5;entryY=0;entryDx=0;entryDy=0;" edge="1" parent="1">
          <mxGeometry width="50" height="50" relative="1" as="geometry">
            <mxPoint x="390" y="140" as="sourcePoint" />
            <mxPoint x="390" y="220" as="targetPoint" />
          </mxGeometry>
        </mxCell>
        <mxCell id="hSVm4hoZ0ws5-N1yhAHV-24" value="" style="endArrow=classic;html=1;rounded=0;entryX=0.5;entryY=0;entryDx=0;entryDy=0;" edge="1" parent="1">
          <mxGeometry width="50" height="50" relative="1" as="geometry">
            <mxPoint x="679.5" y="140" as="sourcePoint" />
            <mxPoint x="679.5" y="220" as="targetPoint" />
          </mxGeometry>
        </mxCell>
        <mxCell id="hSVm4hoZ0ws5-N1yhAHV-25" value="" style="endArrow=classic;html=1;rounded=0;entryX=0.5;entryY=0;entryDx=0;entryDy=0;" edge="1" parent="1">
          <mxGeometry width="50" height="50" relative="1" as="geometry">
            <mxPoint x="829.5" y="140" as="sourcePoint" />
            <mxPoint x="829.5" y="220" as="targetPoint" />
          </mxGeometry>
        </mxCell>
        <mxCell id="hSVm4hoZ0ws5-N1yhAHV-26" value="" style="endArrow=classic;html=1;rounded=0;entryX=0.5;entryY=0;entryDx=0;entryDy=0;" edge="1" parent="1">
          <mxGeometry width="50" height="50" relative="1" as="geometry">
            <mxPoint x="960" y="140" as="sourcePoint" />
            <mxPoint x="960" y="220" as="targetPoint" />
          </mxGeometry>
        </mxCell>
        <mxCell id="hSVm4hoZ0ws5-N1yhAHV-28" value="" style="endArrow=classic;html=1;rounded=0;entryX=0.5;entryY=0;entryDx=0;entryDy=0;" edge="1" parent="1">
          <mxGeometry width="50" height="50" relative="1" as="geometry">
            <mxPoint x="239.5" y="280" as="sourcePoint" />
            <mxPoint x="239.5" y="360" as="targetPoint" />
          </mxGeometry>
        </mxCell>
        <mxCell id="hSVm4hoZ0ws5-N1yhAHV-29" value="" style="endArrow=classic;html=1;rounded=0;entryX=0.5;entryY=0;entryDx=0;entryDy=0;" edge="1" parent="1">
          <mxGeometry width="50" height="50" relative="1" as="geometry">
            <mxPoint x="393" y="280" as="sourcePoint" />
            <mxPoint x="393" y="360" as="targetPoint" />
          </mxGeometry>
        </mxCell>
        <mxCell id="hSVm4hoZ0ws5-N1yhAHV-30" value="" style="endArrow=classic;html=1;rounded=0;" edge="1" parent="1">
          <mxGeometry width="50" height="50" relative="1" as="geometry">
            <mxPoint x="529.5" y="80" as="sourcePoint" />
            <mxPoint x="530" y="120" as="targetPoint" />
          </mxGeometry>
        </mxCell>
        <mxCell id="hSVm4hoZ0ws5-N1yhAHV-32" value="" style="endArrow=classic;html=1;rounded=0;entryX=0.5;entryY=0;entryDx=0;entryDy=0;" edge="1" parent="1">
          <mxGeometry width="50" height="50" relative="1" as="geometry">
            <mxPoint x="829.5" y="280" as="sourcePoint" />
            <mxPoint x="829.5" y="360" as="targetPoint" />
          </mxGeometry>
        </mxCell>
        <mxCell id="hSVm4hoZ0ws5-N1yhAHV-33" value="" style="endArrow=classic;html=1;rounded=0;entryX=0.5;entryY=0;entryDx=0;entryDy=0;" edge="1" parent="1">
          <mxGeometry width="50" height="50" relative="1" as="geometry">
            <mxPoint x="960" y="280" as="sourcePoint" />
            <mxPoint x="960" y="360" as="targetPoint" />
          </mxGeometry>
        </mxCell>
        <mxCell id="hSVm4hoZ0ws5-N1yhAHV-34" value="" style="endArrow=classic;html=1;rounded=0;entryX=0.5;entryY=0;entryDx=0;entryDy=0;" edge="1" parent="1">
          <mxGeometry width="50" height="50" relative="1" as="geometry">
            <mxPoint x="960" y="420" as="sourcePoint" />
            <mxPoint x="960" y="500" as="targetPoint" />
          </mxGeometry>
        </mxCell>
        <mxCell id="hSVm4hoZ0ws5-N1yhAHV-36" value="Button" style="rounded=0;whiteSpace=wrap;html=1;" vertex="1" parent="1">
          <mxGeometry x="70" y="655" width="120" height="60" as="geometry" />
        </mxCell>
        <mxCell id="hSVm4hoZ0ws5-N1yhAHV-40" value="Helper Components:" style="text;html=1;strokeColor=none;fillColor=none;align=center;verticalAlign=middle;whiteSpace=wrap;rounded=0;" vertex="1" parent="1">
          <mxGeometry x="55" y="490" width="150" height="50" as="geometry" />
        </mxCell>
        <mxCell id="hSVm4hoZ0ws5-N1yhAHV-41" value="Link" style="rounded=0;whiteSpace=wrap;html=1;" vertex="1" parent="1">
          <mxGeometry x="70" y="750" width="120" height="60" as="geometry" />
        </mxCell>
        <mxCell id="hSVm4hoZ0ws5-N1yhAHV-42" value="Context Provider" style="rounded=0;whiteSpace=wrap;html=1;" vertex="1" parent="1">
          <mxGeometry x="470" y="20" width="120" height="60" as="geometry" />
        </mxCell>
        <mxCell id="hSVm4hoZ0ws5-N1yhAHV-43" value="" style="endArrow=classic;html=1;rounded=0;entryX=0.5;entryY=0;entryDx=0;entryDy=0;" edge="1" parent="1">
          <mxGeometry width="50" height="50" relative="1" as="geometry">
            <mxPoint x="529.5" y="280" as="sourcePoint" />
            <mxPoint x="529.5" y="360" as="targetPoint" />
          </mxGeometry>
        </mxCell>
        <mxCell id="hSVm4hoZ0ws5-N1yhAHV-45" value="" style="endArrow=classic;html=1;rounded=0;" edge="1" parent="1" target="hSVm4hoZ0ws5-N1yhAHV-8">
          <mxGeometry width="50" height="50" relative="1" as="geometry">
            <mxPoint x="530" y="180" as="sourcePoint" />
            <mxPoint x="530" y="210" as="targetPoint" />
          </mxGeometry>
        </mxCell>
        <mxCell id="hSVm4hoZ0ws5-N1yhAHV-46" value="" style="endArrow=none;html=1;rounded=0;" edge="1" parent="1">
          <mxGeometry width="50" height="50" relative="1" as="geometry">
            <mxPoint x="590" y="140" as="sourcePoint" />
            <mxPoint x="960" y="140" as="targetPoint" />
          </mxGeometry>
        </mxCell>
      </root>
    </mxGraphModel>
  </diagram>
</mxfile>
